<?xml version="1.0" encoding="UTF-8"?>
<svg width="16px" height="15px" viewBox="0 0 16 15" version="1.1" xmlns="http://www.w3.org/2000/svg" xmlns:xlink="http://www.w3.org/1999/xlink">
    <!-- Generator: Sketch 49.3 (51167) - http://www.bohemiancoding.com/sketch -->
    <title>Group</title>
    <desc>Created with Sketch.</desc>
    <defs></defs>
    <g id="Page-1" stroke="none" stroke-width="1" fill="none" fill-rule="evenodd">
        <g id="success" fill="#000000">
            <g id="Group">
                <path d="M7.99999198,15 C6.92450635,15 5.8790606,14.8008031 4.89268419,14.4079426 C3.94104692,14.0289303 3.08544748,13.4869878 2.34965472,12.7971814 C1.61387801,12.1073901 1.03580669,11.3052648 0.631511211,10.4130889 C0.212476459,9.48836014 0,8.50825376 0,7.49999999 C0,6.49174622 0.212476459,5.51162483 0.631511211,4.58689601 C1.03580669,3.69473518 1.61387801,2.8926099 2.34965472,2.2028035 C3.08544748,1.51301214 3.94104692,0.971069728 4.89268419,0.59204234 C5.8790606,0.199196881 6.92450635,0 7.99999198,0 C9.07547761,0 10.1209073,0.199196881 11.1072837,0.59204234 C12.058921,0.971069728 12.9145365,1.51301214 13.6503132,2.2028035 C14.3861059,2.8926099 14.9641773,3.69473518 15.3684727,4.58689601 C15.7875235,5.51162481 16,6.49173119 16,7.49999999 C16,8.5082688 15.7875235,9.48836012 15.3684727,10.4130889 C14.9641773,11.3052648 14.386122,12.1073901 13.6503292,12.7971814 C12.9145525,13.4869878 12.058937,14.0289303 11.1072998,14.4079426 C10.1209234,14.8008031 9.07546157,15 7.99999198,15 Z M7.99999198,0.721727808 C7.02851524,0.721727808 6.08435186,0.901588391 5.19370854,1.25631762 C4.33337777,1.59897294 3.55965426,2.08911633 2.89402942,2.71315529 C2.22840457,3.33719424 1.70556944,4.06256076 1.3400708,4.86910663 C0.961693334,5.70408557 0.769842238,6.58923963 0.769842238,7.49999999 C0.769842238,8.41074532 0.961693334,9.29589937 1.3400708,10.1308934 C1.70556944,10.9374543 2.22838853,11.6628208 2.89402942,12.2868597 C3.55965426,12.9108837 4.33339381,13.4010421 5.19370854,13.7436974 C6.08435186,14.0984266 7.02851524,14.2782872 7.99999198,14.2782872 C8.97145268,14.2782872 9.9156321,14.0984266 10.8062915,13.7436974 C11.6666222,13.4010421 12.4403457,12.9108837 13.1059706,12.2868597 C13.7716115,11.6628208 14.2944466,10.9374543 14.6599452,10.1308934 C15.0383227,9.29591441 15.2301738,8.41076035 15.2301738,7.49999999 C15.2301738,6.58923963 15.0383227,5.70408557 14.6599292,4.86910663 C14.2944306,4.06254572 13.7715954,3.3371792 13.1059706,2.71315529 C12.4403297,2.08913137 11.6666062,1.59897294 10.8062754,1.25631762 C9.91561606,0.901588405 8.97145268,0.721727808 7.99999198,0.721727808 Z" id="Shape" fill-rule="nonzero"></path>
                <path d="M7.87464649,3.53932584 C10.0140131,3.53932584 11.1839792,4.35882899 11.4179724,6.02875992 L10.1142959,6.02875992 C9.99729929,5.53396557 9.78001987,5.16286981 9.44574384,4.94639728 C9.0780402,4.6990001 8.54319855,4.57530152 7.85793269,4.57530152 C7.25623583,4.57530152 6.78824938,4.66807546 6.45397335,4.88454798 C6.08626971,5.08555819 5.9024179,5.36388001 5.9024179,5.71951345 C5.9024179,6.05968457 6.13641112,6.35346871 6.63782517,6.58540357 C6.9553874,6.72456448 7.55708426,6.89465004 8.42620194,7.11112256 C9.46245764,7.34305742 10.1978649,7.59045459 10.6491376,7.85331409 C11.3344034,8.2553345 11.6853933,8.79651582 11.6853933,9.49232038 C11.6853933,11.1313267 10.4652857,11.9662921 8.0250707,11.9662921 C5.75199368,11.9662921 4.51517236,11.0385527 4.31460674,9.19853623 L5.61828327,9.19853623 C5.71856608,9.8324915 5.9692731,10.2808989 6.33697674,10.5592207 C6.70468037,10.8066179 7.25623583,10.9303165 7.9916431,10.9303165 C9.52931285,10.9303165 10.3148615,10.4664468 10.3148615,9.569632 C10.3148615,9.12122462 10.0307269,8.7810535 9.49588525,8.53365632 C9.21175062,8.40995774 8.59333996,8.23987218 7.65736707,8.02339965 C6.63782517,7.7914648 5.9191317,7.55952995 5.51800046,7.31213277 C4.84944839,6.94103701 4.53188616,6.43078033 4.53188616,5.7504381 C4.53188616,5.07009587 4.84944839,4.54437687 5.50128666,4.14235646 C6.10298352,3.74033605 6.90524599,3.53932584 7.87464649,3.53932584 Z" id="s"></path>
                <rect id="round-up" x="7.5505618" y="5.56179775" width="1" height="1" rx="0.5"></rect>
                <rect id="round-down" x="7.5505618" y="8.93258427" width="1" height="1" rx="0.5"></rect>
            </g>
        </g>
    </g>
</svg>